<svg version="1.0" xmlns="http://www.w3.org/2000/svg" width="440" height="440" viewBox="0 0 330 330"><path d="M47.2 116.2c-1.4 1.4-1.5 3.7-.3 5.6.4.8 4 1.8 8.1 2.3 9.4 1.1 16.7 4.5 23.4 10.9 10.3 9.7 15.1 23.6 12.7 36.6-4.2 22.8-25 37.8-47.4 34.3-8.6-1.4-15.2-4.6-21.9-10.8-16-14.7-17.5-40.2-3.3-56.9 3-3.4 4.3-4.2 7.1-4.2 3.9 0 7.4 2.9 7.4 6.1 0 1.2-1.8 4.8-4 8.1-4.8 7.3-6.4 12.6-5.7 19.5 1.4 13.3 11.5 23.1 24.9 24.1 23.3 1.8 37.5-24.8 23.2-43.5-3.9-5.1-5.8-4.5-16.2 6-9.1 9.2-10.3 11.2-8 13.5 2.4 2.4 5.3 1.1 12.1-5.6 7.5-7.4 8.1-7.4 9.3.6 1.9 12.6-10.1 23.2-22.9 20.1-13.4-3.2-18.5-18.8-9.8-29.9 4.3-5.4 5.1-7.5 5.1-12.7 0-12.9-14.7-19.7-24.9-11.5-5 3.9-10.6 12.5-13.1 19.8-6.3 18.7-2 37.6 11.9 51.5 25.7 25.7 68 16.9 82.3-17.2 1.9-4.6 2.2-7.2 2.3-17.9 0-12.4 0-12.6-3.7-20.3-4.6-9.5-13.4-19.2-21.7-23.6-9.4-5-24.1-7.7-26.9-4.9zM203 126.9c-.6 1.2-1 11.9-1 27.9 0 23.8.1 26 1.8 27.5 2.5 2.3 4.8 2.1 6.6-.5 1.2-1.7 1.6-4.8 1.6-12.1 0-9.6.1-9.9 2.9-12.8 2.4-2.4 3.8-2.9 7.6-2.9s5.2.5 7.6 2.9c2.8 2.9 2.9 3.2 2.9 12.8 0 10.5 1.3 14.3 4.9 14.3 3.8 0 5.1-3.1 5.1-12.7 0-9.9-1-14.1-4.7-19.1-3.8-5.1-9.5-7.5-16.7-7-3.4.3-6.9.8-7.8 1.3-1.6.6-1.8-.1-1.8-8.5 0-10.7-.9-13-5-13-1.9 0-3.3.7-4 1.9zm87 .7c-1.3 3.4-1.3 33.7 0 40.5 1.3 6.6 5 11.6 11 14.6 5.8 3 11.4 2.9 17.6-.2 15.2-7.6 15.2-27.9 0-35.7-3.1-1.6-5.2-1.9-10-1.6-3.4.3-6.9.8-7.8 1.3-1.6.6-1.8-.1-1.8-9.2 0-10.8-.6-12.3-5.2-12.3-2.1 0-3.1.6-3.8 2.6zm26.8 28.9c3.9 3.3 4.8 7.4 2.7 11.9-3.2 6.7-11.6 8.2-16.8 3-3.1-3.1-3.9-7-2.2-11 2.8-6.7 10.8-8.5 16.3-3.9zm-191.5-8.9c-14.5 8.6-11.4 31 5 35.5 4.1 1.1 10.3.5 15-1.6 1.4-.6 1.7-.2 1.7 2.1 0 4.4-3.3 9-7.4 10.4-5.3 1.7-10-.1-13.2-5.2-2-3.2-3-3.9-5.1-3.6-8.9 1.1-2 14.7 9 17.8 8.3 2.3 17.8-1.2 22.4-8.2l2.8-4.1.3-21.5c.2-15.3 0-21.8-.9-22.8-1.4-1.7-5.1-1.8-6.6-.3-.9.9-2 .9-4.4 0-5.8-2-13.9-1.4-18.6 1.5zm17.3 8.2c6.5 5.2 5.3 14.7-2.3 17.8-4.6 2-8.6 1-11.8-2.8-5.8-6.9-1.3-16.8 7.7-16.8 2.6 0 5.2.7 6.4 1.8zm28.9-9.4c-6 2.7-11.5 11-11.5 17.4 0 16.4 19.6 25.9 32 15.5 10.6-8.8 8.8-26.4-3.2-32.2-5.1-2.4-12.7-2.7-17.3-.7zm14.1 9.4c6.8 5.4 5.1 15.5-3.1 18.2-10.2 3.4-17.9-9-10.6-16.9 2.4-2.6 3.7-3.1 7.3-3.1 2.6 0 5.2.7 6.4 1.8zm61.6-9.6c-1.7 1.7-1.6 20.9.1 25.1 1.9 4.5 8.9 10.5 13.2 11.3 10.4 1.9 18.8-1.9 23.3-10.6 1.8-3.7 2.2-6 2.2-14.5 0-10.6-.7-12.5-4.5-12.5-3.7 0-4.5 1.9-4.5 11.2 0 5.5-.6 10.2-1.5 12.4-3.1 7.4-14.3 8.1-18.5 1.1-1.6-2.6-2-5-2-12.8 0-10-.7-11.9-4.5-11.9-1.2 0-2.6.5-3.3 1.2z"/></svg>